<svg width="155" height="155" viewBox="0 0 155 155" fill="none" xmlns="http://www.w3.org/2000/svg">
<g clip-path="url(#clip0_1_257)">
<g filter="url(#filter0_d_1_257)">
<path d="M77.5 48.4375C61.4854 48.4375 48.4375 61.4854 48.4375 77.5C48.4375 93.5146 61.4854 106.562 77.5 106.562C93.5147 106.562 106.563 93.5146 106.563 77.5C106.563 61.4854 93.5147 48.4375 77.5 48.4375ZM152.094 72.8076L123.425 58.4883L133.566 28.0938C134.929 23.9766 131.023 20.0713 126.937 21.4639L96.542 31.6055L82.1924 2.90625C80.2549 -0.96875 74.7451 -0.96875 72.8076 2.90625L58.4883 31.5752L28.0635 21.4336C23.9463 20.0713 20.041 23.9766 21.4336 28.0635L31.5752 58.458L2.90625 72.8076C-0.96875 74.7451 -0.96875 80.2549 2.90625 82.1924L31.5752 96.5117L21.4336 126.937C20.0713 131.054 23.9766 134.959 28.0635 133.566L58.458 123.425L72.7774 152.094C74.7149 155.969 80.2246 155.969 82.1621 152.094L96.4815 123.425L126.876 133.566C130.993 134.929 134.898 131.023 133.506 126.937L123.364 96.542L152.033 82.2227C155.969 80.2549 155.969 74.7451 152.094 72.8076ZM104.897 104.897C89.791 120.004 65.209 120.004 50.1025 104.897C34.9961 89.791 34.9961 65.209 50.1025 50.1025C65.209 34.9961 89.791 34.9961 104.897 50.1025C120.004 65.209 120.004 89.791 104.897 104.897Z" fill="#FFE572"/>
</g>
</g>
<defs>
<filter id="filter0_d_1_257" x="-4" y="-4" width="162.992" height="163" filterUnits="userSpaceOnUse" color-interpolation-filters="sRGB">
<feFlood flood-opacity="0" result="BackgroundImageFix"/>
<feColorMatrix in="SourceAlpha" type="matrix" values="0 0 0 0 0 0 0 0 0 0 0 0 0 0 0 0 0 0 127 0" result="hardAlpha"/>
<feOffset/>
<feGaussianBlur stdDeviation="2"/>
<feComposite in2="hardAlpha" operator="out"/>
<feColorMatrix type="matrix" values="0 0 0 0 1 0 0 0 0 1 0 0 0 0 1 0 0 0 0.29 0"/>
<feBlend mode="normal" in2="BackgroundImageFix" result="effect1_dropShadow_1_257"/>
<feBlend mode="normal" in="SourceGraphic" in2="effect1_dropShadow_1_257" result="shape"/>
</filter>
<clipPath id="clip0_1_257">
<rect width="155" height="155" fill="white"/>
</clipPath>
</defs>
</svg>
