<svg width="156" height="112" viewBox="0 0 156 112" fill="none" xmlns="http://www.w3.org/2000/svg">
<path d="M78 0.5C102.295 0.5 122.494 17.7903 126.557 40.5557C127.871 40.3092 129.221 40.1797 130.599 40.1797C144.416 40.1797 155.5 53.0811 155.5 68.8398V85H0.5V68.8398L0.507812 68.1035C0.846732 52.6812 11.7998 40.1797 25.4014 40.1797C26.7783 40.1797 28.128 40.3094 29.4424 40.5557C33.505 17.7902 53.7052 0.500018 78 0.5Z" fill="url(#paint0_linear_28_628)" stroke="#72BDFE"/>
<rect x="0.5" y="88.5" width="155" height="10" fill="#C1E7FF" stroke="#72BDFE"/>
<rect x="0.5" y="101.5" width="155" height="10" fill="#8BD2FF" stroke="#72BDFE"/>
<path d="M1 68.84H155V84.5H78H1V68.84Z" fill="url(#paint1_linear_28_628)"/>
<path d="M126.803 49C126.803 75.5096 104.953 84.5 78 84.5C51.047 84.5 29.1972 75.5096 29.1972 49C29.1972 22.4903 51.047 1 78 1C104.953 1 126.803 22.4903 126.803 49Z" fill="url(#paint2_linear_28_628)"/>
<path d="M1 68.84C1 84.3923 11.9249 84.5 25.4014 84.5C38.8779 84.5 49.8028 84.3923 49.8028 68.84C49.8028 53.2877 38.8779 40.68 25.4014 40.68C11.9249 40.68 1 53.2877 1 68.84Z" fill="url(#paint3_linear_28_628)"/>
<path d="M155 68.84C155 84.3923 144.075 83 130.599 83C117.122 83 106.197 84.3923 106.197 68.84C106.197 53.2877 117.122 40.68 130.599 40.68C144.075 40.68 155 53.2877 155 68.84Z" fill="url(#paint4_linear_28_628)"/>
<rect x="1" y="89" width="154" height="9" fill="#C1E7FF"/>
<rect x="1" y="102" width="154" height="9" fill="#8BD2FF"/>
<defs>
<linearGradient id="paint0_linear_28_628" x1="78" y1="1" x2="78" y2="97" gradientUnits="userSpaceOnUse">
<stop stop-color="white"/>
<stop offset="1" stop-color="#E1F3FF"/>
</linearGradient>
<linearGradient id="paint1_linear_28_628" x1="78" y1="1" x2="78" y2="97" gradientUnits="userSpaceOnUse">
<stop stop-color="white"/>
<stop offset="1" stop-color="#E1F3FF"/>
</linearGradient>
<linearGradient id="paint2_linear_28_628" x1="78" y1="1" x2="78" y2="97" gradientUnits="userSpaceOnUse">
<stop stop-color="white"/>
<stop offset="1" stop-color="#E1F3FF"/>
</linearGradient>
<linearGradient id="paint3_linear_28_628" x1="78" y1="1" x2="78" y2="97" gradientUnits="userSpaceOnUse">
<stop stop-color="white"/>
<stop offset="1" stop-color="#E1F3FF"/>
</linearGradient>
<linearGradient id="paint4_linear_28_628" x1="78" y1="1" x2="78" y2="97" gradientUnits="userSpaceOnUse">
<stop stop-color="white"/>
<stop offset="1" stop-color="#E1F3FF"/>
</linearGradient>
</defs>
</svg>
