<svg width="393" height="233" viewBox="0 0 393 233" fill="none" xmlns="http://www.w3.org/2000/svg">
<path d="M332.341 66.5252C332.341 103.266 361.796 133.05 398.129 133.05C434.463 133.05 463.917 103.266 463.917 66.5252C463.917 29.7844 434.463 0 398.129 0C361.796 0 332.341 29.7844 332.341 66.5252Z" fill="#A4DCFF"/>
<path d="M298.855 120.043C298.855 145.495 445.179 133.05 472.511 133.05C499.843 133.05 522 112.418 522 86.9659C522 61.5142 499.843 40.8814 472.511 40.8814C445.179 40.8814 298.855 94.591 298.855 120.043Z" fill="#A4DCFF"/>
<path d="M279 86.9659C279 112.418 301.157 133.05 328.489 133.05C355.821 133.05 471.918 139.548 471.918 114.096C471.918 88.6446 355.821 40.8814 328.489 40.8814C301.157 40.8814 279 61.5142 279 86.9659Z" fill="#A4DCFF"/>
<path d="M131 161.525C131 198.266 160.454 228.051 196.788 228.051C233.122 228.051 262.576 198.266 262.576 161.525C262.576 124.784 233.122 95.0001 196.788 95.0001C160.454 95.0001 131 124.784 131 161.525Z" fill="#A4DCFF"/>
<path d="M40 136.081C40 164.844 62.1664 188.161 89.51 188.161C116.854 188.161 233 195.504 233 166.741C233 137.978 116.854 84 89.51 84C62.1664 84 40 107.317 40 136.081Z" fill="#A4DCFF"/>
<path d="M221.099 128.94C211.262 155.968 224.116 185.461 249.811 194.813C275.506 204.165 382.136 250.79 391.974 223.761C401.811 196.732 311.131 106.286 285.436 96.9334C259.742 87.5814 230.937 101.911 221.099 128.94Z" fill="#A4DCFF"/>
<path d="M-74.6585 66.5252C-74.6585 103.266 -45.2043 133.05 -8.87074 133.05C27.4629 133.05 56.9171 103.266 56.9171 66.5252C56.9171 29.7844 27.4629 0 -8.87074 0C-45.2043 0 -74.6585 29.7844 -74.6585 66.5252Z" fill="#A4DCFF"/>
<path d="M-108.145 120.043C-108.145 145.495 38.1789 133.05 65.511 133.05C92.843 133.05 115 112.418 115 86.9659C115 61.5142 92.843 40.8814 65.511 40.8814C38.1789 40.8814 -108.145 94.591 -108.145 120.043Z" fill="#A4DCFF"/>
<path d="M-128 86.9659C-128 112.418 -105.843 133.05 -78.511 133.05C-51.1789 133.05 64.9183 139.548 64.9183 114.096C64.9183 88.6446 -51.1789 40.8814 -78.511 40.8814C-105.843 40.8814 -128 61.5142 -128 86.9659Z" fill="#A4DCFF"/>
</svg>
