<svg width="189" height="163" viewBox="0 0 189 163" fill="none" xmlns="http://www.w3.org/2000/svg">
<g filter="url(#filter0_d_28_640)">
<path d="M81.5 52.4375C65.4854 52.4375 52.4375 65.4854 52.4375 81.5C52.4375 97.5146 65.4854 110.562 81.5 110.562C97.5147 110.562 110.563 97.5146 110.563 81.5C110.563 65.4854 97.5147 52.4375 81.5 52.4375ZM156.094 76.8076L127.425 62.4883L137.566 32.0938C138.929 27.9766 135.023 24.0713 130.937 25.4639L100.542 35.6055L86.1924 6.90625C84.2549 3.03125 78.7451 3.03125 76.8076 6.90625L62.4883 35.5752L32.0635 25.4336C27.9463 24.0713 24.041 27.9766 25.4336 32.0635L35.5752 62.458L6.90625 76.8076C3.03125 78.7451 3.03125 84.2549 6.90625 86.1924L35.5752 100.512L25.4336 130.937C24.0713 135.054 27.9766 138.959 32.0635 137.566L62.458 127.425L76.7773 156.094C78.7148 159.969 84.2246 159.969 86.1621 156.094L100.481 127.425L130.876 137.566C134.993 138.929 138.898 135.023 137.506 130.937L127.364 100.542L156.033 86.2227C159.969 84.2549 159.969 78.7451 156.094 76.8076ZM108.897 108.897C93.791 124.004 69.209 124.004 54.1025 108.897C38.9961 93.791 38.9961 69.209 54.1025 54.1025C69.209 38.9961 93.791 38.9961 108.897 54.1025C124.004 69.209 124.004 93.791 108.897 108.897Z" fill="#FFE572"/>
</g>
<path d="M127 61.5C146.259 61.5 162.281 75.1717 165.551 93.1934C166.566 93.0096 167.607 92.9131 168.669 92.9131C179.686 92.9131 188.5 103.188 188.5 115.707C188.5 127.872 180.177 137.915 169.599 138.474V138.5H85.2607V138.498C74.2768 138.454 65.5002 128.199 65.5 115.707C65.5 103.188 74.3142 92.9131 85.3311 92.9131C86.3926 92.9131 87.4335 93.0098 88.4482 93.1934C91.718 75.1716 107.741 61.5 127 61.5Z" fill="white" stroke="#72BDFE"/>
<path d="M85.7606 106.587H169.099V138H85.7606V106.587Z" fill="white"/>
<path d="M165.662 100C165.662 120.987 148.352 138 127 138C105.648 138 88.3381 120.987 88.3381 100C88.3381 79.0132 105.648 62 127 62C148.352 62 165.662 79.0132 165.662 100Z" fill="white"/>
<path d="M66 115.707C66 128.019 74.6548 138 85.331 138C96.0072 138 104.662 128.019 104.662 115.707C104.662 103.394 96.0072 93.4133 85.331 93.4133C74.6548 93.4133 66 103.394 66 115.707Z" fill="white"/>
<path d="M188 115.707C188 128.019 179.345 138 168.669 138C157.993 138 149.338 128.019 149.338 115.707C149.338 103.394 157.993 93.4133 168.669 93.4133C179.345 93.4133 188 103.394 188 115.707Z" fill="white"/>
<defs>
<filter id="filter0_d_28_640" x="0" y="0" width="162.992" height="163" filterUnits="userSpaceOnUse" color-interpolation-filters="sRGB">
<feFlood flood-opacity="0" result="BackgroundImageFix"/>
<feColorMatrix in="SourceAlpha" type="matrix" values="0 0 0 0 0 0 0 0 0 0 0 0 0 0 0 0 0 0 127 0" result="hardAlpha"/>
<feOffset/>
<feGaussianBlur stdDeviation="2"/>
<feComposite in2="hardAlpha" operator="out"/>
<feColorMatrix type="matrix" values="0 0 0 0 1 0 0 0 0 1 0 0 0 0 1 0 0 0 0.29 0"/>
<feBlend mode="normal" in2="BackgroundImageFix" result="effect1_dropShadow_28_640"/>
<feBlend mode="normal" in="SourceGraphic" in2="effect1_dropShadow_28_640" result="shape"/>
</filter>
</defs>
</svg>
