<svg width="393" height="246" viewBox="0 0 393 246" fill="none" xmlns="http://www.w3.org/2000/svg">
<path d="M-26 102H428V246H-26V102Z" fill="white"/>
<path d="M448.683 67.5252C448.683 104.266 418.138 134.05 380.459 134.05C342.779 134.05 312.234 104.266 312.234 67.5252C312.234 30.7844 342.779 1 380.459 1C418.138 1 448.683 30.7844 448.683 67.5252Z" fill="white"/>
<path d="M483.41 121.043C483.41 146.495 331.666 134.05 303.322 134.05C274.978 134.05 252 113.418 252 87.9659C252 62.5142 274.978 41.8814 303.322 41.8814C331.666 41.8814 483.41 95.591 483.41 121.043Z" fill="white"/>
<path d="M504 87.9659C504 113.418 481.022 134.05 452.678 134.05C424.334 134.05 303.937 140.548 303.937 115.096C303.937 89.6446 424.334 41.8814 452.678 41.8814C481.022 41.8814 504 62.5142 504 87.9659Z" fill="white"/>
<path d="M80.6829 66.5252C80.6829 103.266 50.1378 133.05 12.4585 133.05C-25.2208 133.05 -55.7659 103.266 -55.7659 66.5252C-55.7659 29.7844 -25.2208 0 12.4585 0C50.1378 0 80.6829 29.7844 80.6829 66.5252Z" fill="white"/>
<path d="M115.41 120.043C115.41 145.495 -36.3337 133.05 -64.678 133.05C-93.0224 133.05 -116 112.418 -116 86.9659C-116 61.5142 -93.0224 40.8814 -64.678 40.8814C-36.3337 40.8814 115.41 94.591 115.41 120.043Z" fill="white"/>
<path d="M136 86.9659C136 112.418 113.022 133.05 84.6781 133.05C56.3337 133.05 -64.0634 139.548 -64.0634 114.096C-64.0634 88.6446 56.3337 40.8814 84.6781 40.8814C113.022 40.8814 136 61.5142 136 86.9659Z" fill="white"/>
<path d="M130 100.76C130 117.196 107.03 130.521 78.6943 130.521C50.359 130.521 -70 134.717 -70 118.28C-70 101.844 50.359 71 78.6943 71C107.03 71 130 84.3241 130 100.76Z" fill="white"/>
<path d="M274 129.5C274 161.809 238.63 188 195 188C151.37 188 116 161.809 116 129.5C116 97.1913 151.37 71 195 71C238.63 71 274 97.1913 274 129.5Z" fill="white"/>
</svg>
