<svg width="176" height="148" viewBox="0 0 176 148" fill="none" xmlns="http://www.w3.org/2000/svg">
<path d="M60.5 0.5C79.2861 0.5 94.9172 13.8089 98.1133 31.3564C99.1 31.1789 100.112 31.0869 101.145 31.0869C111.898 31.087 120.5 41.0972 120.5 53.293C120.5 65.1394 112.384 74.9225 102.063 75.4736V75.5H19.7744V75.498C9.05875 75.4478 0.5 65.4582 0.5 53.293C0.500173 41.0972 9.10205 31.087 19.8555 31.0869C20.8872 31.0869 21.8993 31.179 22.8857 31.3564C26.0817 13.8088 41.7138 0.500014 60.5 0.5Z" fill="#C1E7FF" stroke="#72BDFE"/>
<path d="M98 5.5C122.295 5.5 142.494 22.7903 146.557 45.5557C147.871 45.3092 149.221 45.1797 150.599 45.1797C164.416 45.1797 175.5 58.0811 175.5 73.8398C175.5 89.2004 164.969 101.843 151.641 102.473V102.5H45.4434V102.499C45.4294 102.499 45.4154 102.5 45.4014 102.5C31.5839 102.5 20.5 89.5987 20.5 73.8398C20.5001 58.0811 31.5839 45.1797 45.4014 45.1797C46.7783 45.1797 48.128 45.3094 49.4424 45.5557C53.505 22.7902 73.7052 5.50002 98 5.5Z" fill="white" stroke="#72BDFE"/>
<path d="M20.2747 44.4133H101.563V74.9999H20.2747V44.4133Z" fill="#C1E7FF"/>
<path d="M98.2113 38C98.2113 58.4345 81.3274 75 60.5 75C39.6727 75 22.7888 58.4345 22.7888 38C22.7888 17.5655 39.6727 1 60.5 1C81.3274 1 98.2113 17.5655 98.2113 38Z" fill="#C1E7FF"/>
<path d="M1 53.2933C1 65.2816 9.44195 75 19.8556 75C30.2693 75 38.7112 65.2816 38.7112 53.2933C38.7112 41.3051 30.2693 31.5867 19.8556 31.5867C9.44195 31.5867 1 41.3051 1 53.2933Z" fill="#C1E7FF"/>
<path d="M120 53.2933C120 65.2816 111.558 75 101.144 75C90.7307 75 82.2887 65.2816 82.2887 53.2933C82.2887 41.3051 90.7307 31.5867 101.144 31.5867C111.558 31.5867 120 41.3051 120 53.2933Z" fill="#C1E7FF"/>
<path d="M45.9438 62.3199H151.141V102H45.9438V62.3199Z" fill="white"/>
<path d="M146.803 54C146.803 80.5096 124.953 102 98 102C71.047 102 49.1972 80.5096 49.1972 54C49.1972 27.4903 71.047 6 98 6C124.953 6 146.803 27.4903 146.803 54Z" fill="white"/>
<path d="M21 73.84C21 89.3923 31.9249 102 45.4014 102C58.8779 102 69.8028 89.3923 69.8028 73.84C69.8028 58.2877 58.8779 45.68 45.4014 45.68C31.9249 45.68 21 58.2877 21 73.84Z" fill="white"/>
<path d="M175 73.84C175 89.3923 164.075 102 150.599 102C137.122 102 126.197 89.3923 126.197 73.84C126.197 58.2877 137.122 45.68 150.599 45.68C164.075 45.68 175 58.2877 175 73.84Z" fill="white"/>
<line x1="64.8866" y1="116.463" x2="52.8866" y2="139.463" stroke="#32A1FF" stroke-width="2"/>
<line x1="128.887" y1="107.463" x2="116.887" y2="130.463" stroke="#32A1FF" stroke-width="2"/>
<line x1="52.8866" y1="107.463" x2="40.8866" y2="130.463" stroke="#32A1FF" stroke-width="2"/>
<line x1="110.887" y1="112.463" x2="98.8866" y2="135.463" stroke="#32A1FF" stroke-width="2"/>
<path d="M84.4998 102L100.5 102L90.4998 113.122L94.9998 114.243L71.4888 144.494L78 127.5L82.5 114.243L78.2112 113.122L84.4998 102Z" fill="#FFE572"/>
</svg>
