<svg width="176" height="132" viewBox="0 0 176 132" fill="none" xmlns="http://www.w3.org/2000/svg">
<path d="M60.5 0.5C79.2861 0.5 94.9172 13.8089 98.1133 31.3564C99.1 31.1789 100.112 31.0869 101.145 31.0869C111.898 31.087 120.5 41.0972 120.5 53.293C120.5 65.1394 112.384 74.9225 102.063 75.4736V75.5H19.7744V75.498C9.05875 75.4478 0.5 65.4582 0.5 53.293C0.500173 41.0972 9.10205 31.087 19.8555 31.0869C20.8872 31.0869 21.8993 31.179 22.8857 31.3564C26.0817 13.8088 41.7138 0.500014 60.5 0.5Z" fill="#C1E7FF" stroke="#72BDFE"/>
<path d="M98 5.5C122.295 5.5 142.494 22.7903 146.557 45.5557C147.871 45.3092 149.221 45.1797 150.599 45.1797C164.416 45.1797 175.5 58.0811 175.5 73.8398C175.5 89.2004 164.969 101.843 151.641 102.473V102.5H45.4434V102.499C45.4294 102.499 45.4154 102.5 45.4014 102.5C31.5839 102.5 20.5 89.5987 20.5 73.8398C20.5001 58.0811 31.5839 45.1797 45.4014 45.1797C46.7783 45.1797 48.128 45.3094 49.4424 45.5557C53.505 22.7902 73.7052 5.50002 98 5.5Z" fill="white" stroke="#72BDFE"/>
<path d="M20.2747 44.4133H101.563V74.9999H20.2747V44.4133Z" fill="#C1E7FF"/>
<path d="M98.2113 38C98.2113 58.4345 81.3274 75 60.5 75C39.6727 75 22.7888 58.4345 22.7888 38C22.7888 17.5655 39.6727 1 60.5 1C81.3274 1 98.2113 17.5655 98.2113 38Z" fill="#C1E7FF"/>
<path d="M1 53.2933C1 65.2816 9.44195 75 19.8556 75C30.2693 75 38.7112 65.2816 38.7112 53.2933C38.7112 41.3051 30.2693 31.5867 19.8556 31.5867C9.44195 31.5867 1 41.3051 1 53.2933Z" fill="#C1E7FF"/>
<path d="M120 53.2933C120 65.2816 111.558 75 101.144 75C90.7307 75 82.2887 65.2816 82.2887 53.2933C82.2887 41.3051 90.7307 31.5867 101.144 31.5867C111.558 31.5867 120 41.3051 120 53.2933Z" fill="#C1E7FF"/>
<path d="M45.9438 62.3199H151.141V102H45.9438V62.3199Z" fill="white"/>
<path d="M146.803 54C146.803 80.5096 124.953 102 98 102C71.047 102 49.1972 80.5096 49.1972 54C49.1972 27.4903 71.047 6 98 6C124.953 6 146.803 27.4903 146.803 54Z" fill="white"/>
<path d="M21 73.84C21 89.3923 31.9249 102 45.4014 102C58.8779 102 69.8028 89.3923 69.8028 73.84C69.8028 58.2877 58.8779 45.68 45.4014 45.68C31.9249 45.68 21 58.2877 21 73.84Z" fill="white"/>
<path d="M175 73.84C175 89.3923 164.075 102 150.599 102C137.122 102 126.197 89.3923 126.197 73.84C126.197 58.2877 137.122 45.68 150.599 45.68C164.075 45.68 175 58.2877 175 73.84Z" fill="white"/>
<path d="M56 116.154C56 117.173 55.3284 118 54.5 118C53.6716 118 53 117.173 53 116.154C53 115.134 54.125 112.923 54.5 112C55.0625 113.385 56 115.134 56 116.154Z" fill="#32A1FF"/>
<path d="M141 116.154C141 117.173 140.328 118 139.5 118C138.672 118 138 117.173 138 116.154C138 115.134 139.125 112.923 139.5 112C140.062 113.385 141 115.134 141 116.154Z" fill="#32A1FF"/>
<path d="M95 117.154C95 118.173 94.3284 119 93.5 119C92.6716 119 92 118.173 92 117.154C92 116.134 93.125 113.923 93.5 113C94.0625 114.385 95 116.134 95 117.154Z" fill="#32A1FF"/>
<path d="M62 129.231C62 130.76 60.8807 132 59.5 132C58.1193 132 57 130.76 57 129.231C57 127.701 58.875 124.385 59.5 123C60.4375 125.077 62 127.701 62 129.231Z" fill="#32A1FF"/>
<path d="M77 115.231C77 116.76 75.8807 118 74.5 118C73.1193 118 72 116.76 72 115.231C72 113.701 73.875 110.385 74.5 109C75.4375 111.077 77 113.701 77 115.231Z" fill="#32A1FF"/>
<path d="M87 128.231C87 129.76 85.8807 131 84.5 131C83.1193 131 82 129.76 82 128.231C82 126.701 83.875 123.385 84.5 122C85.4375 124.077 87 126.701 87 128.231Z" fill="#32A1FF"/>
<path d="M108 129.231C108 130.76 106.881 132 105.5 132C104.119 132 103 130.76 103 129.231C103 127.701 104.875 124.385 105.5 123C106.438 125.077 108 127.701 108 129.231Z" fill="#32A1FF"/>
<path d="M123 115.231C123 116.76 121.881 118 120.5 118C119.119 118 118 116.76 118 115.231C118 113.701 119.875 110.385 120.5 109C121.438 111.077 123 113.701 123 115.231Z" fill="#32A1FF"/>
<path d="M133 128.231C133 129.76 131.881 131 130.5 131C129.119 131 128 129.76 128 128.231C128 126.701 129.875 123.385 130.5 122C131.438 124.077 133 126.701 133 128.231Z" fill="#32A1FF"/>
</svg>
